<?xml version="1.0" standalone="no"?>
<!DOCTYPE svg PUBLIC "-//W3C//DTD SVG 20010904//EN"
 "http://www.w3.org/TR/2001/REC-SVG-20010904/DTD/svg10.dtd">
<svg version="1.0" xmlns="http://www.w3.org/2000/svg"
 width="1024.000000pt" height="1024.000000pt" viewBox="0 0 1024.000000 1024.000000"
 preserveAspectRatio="xMidYMid meet">

<g transform="translate(0.000000,1024.000000) scale(0.100000,-0.100000)"
fill="#000000" stroke="none">
<path d="M4987 9020 c-346 -34 -524 -68 -732 -142 -77 -27 -225 -79 -330 -115
-595 -205 -953 -456 -1226 -858 -68 -101 -72 -105 -103 -105 -14 0 -27 -4 -30
-8 -9 -14 91 -203 140 -265 l46 -59 23 32 c23 31 24 31 35 11 12 -24 50 -28
50 -6 0 8 9 15 20 15 15 0 20 7 20 25 0 26 -7 28 -72 28 -16 0 -28 2 -28 6 0
29 65 241 86 283 87 171 234 332 414 451 117 77 310 175 310 156 0 -5 10 -1
22 11 12 11 23 18 26 16 2 -3 -43 -58 -100 -123 -117 -133 -153 -180 -257
-335 -39 -60 -78 -108 -86 -108 -22 0 -18 18 5 25 19 6 20 31 5 82 -2 7 14 20
35 29 26 12 36 20 28 25 -7 5 -16 3 -20 -4 -4 -7 -6 -2 -5 11 0 12 7 22 15 22
22 0 42 26 43 57 3 55 0 58 -31 28 -16 -15 -26 -33 -23 -39 3 -6 3 -8 -1 -4
-10 9 -36 -14 -29 -26 3 -5 0 -6 -8 -4 -8 3 -29 -10 -46 -29 -33 -34 -42 -50
-23 -38 18 11 11 -3 -16 -32 -15 -15 -30 -27 -34 -26 -4 1 -4 -16 0 -37 4 -22
3 -37 -1 -34 -5 3 -9 -2 -9 -10 0 -8 -6 -19 -13 -23 -7 -4 -18 -20 -24 -35
l-13 -28 42 0 c33 0 39 3 30 12 -7 7 -11 23 -11 38 1 16 3 19 6 8 4 -18 23
-25 23 -10 1 15 49 42 65 36 9 -4 13 -10 8 -13 -4 -3 -16 -23 -27 -43 -10 -20
-26 -45 -35 -55 -10 -10 -17 -20 -17 -23 2 -14 -92 -158 -99 -152 -5 4 -5 1
-1 -5 10 -17 -4 -40 -14 -23 -5 8 -9 7 -13 -5 -5 -11 -3 -14 5 -9 17 11 5 -17
-44 -98 -64 -104 -87 -151 -87 -173 -1 -12 -6 -26 -12 -32 -8 -8 0 -33 29 -89
23 -44 52 -105 66 -136 14 -32 31 -58 39 -58 7 0 89 77 183 171 95 95 200 191
239 217 38 26 146 86 240 133 93 47 285 144 425 215 338 172 536 249 871 339
393 106 824 148 1184 115 251 -23 591 -103 802 -188 217 -88 513 -248 712
-385 67 -46 93 -47 137 -3 52 52 47 70 -62 233 -188 283 -347 443 -629 633
-343 231 -699 369 -1250 485 -329 69 -514 79 -868 45z m542 -156 c133 -9 113
-22 -55 -35 -69 -6 -160 -19 -202 -30 -99 -25 -212 -68 -212 -80 0 -6 5 -7 10
-4 17 10 11 -21 -8 -45 -22 -27 -18 -61 7 -77 14 -9 35 -7 87 7 397 110 440
117 689 126 329 12 526 -31 840 -185 177 -87 345 -194 505 -321 106 -84 270
-243 290 -281 10 -17 6 -16 -32 8 -74 48 -119 81 -121 90 -1 4 -27 27 -58 50
-32 23 -61 48 -66 56 -4 7 -25 25 -47 40 -38 25 -64 26 -79 0 -10 -17 -48 -17
-72 0 -16 13 -15 14 13 9 21 -3 32 0 32 8 0 7 -6 10 -14 7 -8 -3 -20 0 -26 8
-6 7 -24 18 -40 25 -16 7 -28 16 -25 20 7 12 -21 20 -66 20 -21 0 -39 4 -39 9
0 5 -39 9 -87 9 -101 -1 -178 7 -278 29 -38 8 -83 17 -100 20 -16 3 -32 8 -35
13 -8 12 -255 23 -478 21 -455 -3 -1005 -122 -1496 -323 -189 -77 -329 -148
-556 -283 -190 -113 -238 -138 -251 -130 -5 4 -8 1 -7 -7 2 -7 -5 -13 -14 -13
-9 0 -20 -4 -25 -9 -5 -5 -2 -6 7 -1 38 20 -13 -18 -110 -83 -57 -39 -109 -68
-114 -65 -5 4 1 10 13 15 18 6 21 13 15 30 -4 13 -7 33 -6 46 2 30 -12 28 -38
-5 -36 -46 -112 -105 -122 -95 -16 16 19 129 59 196 134 221 338 507 453 633
71 77 244 238 306 284 74 55 233 129 359 168 142 44 347 91 392 91 l38 -1 -60
-31 c-33 -16 -91 -56 -130 -87 -38 -31 -104 -82 -145 -113 -41 -32 -127 -108
-191 -170 -96 -93 -119 -122 -133 -162 -9 -27 -14 -52 -11 -55 3 -2 24 13 48
36 111 106 562 415 772 529 130 71 301 108 450 98 33 -2 107 -6 164 -10z
m1254 -591 c-7 -2 -19 -2 -25 0 -7 3 -2 5 12 5 14 0 19 -2 13 -5z m-3588 -192
c-3 -6 -11 -11 -17 -11 -6 0 -6 6 2 15 14 17 26 13 15 -4z m75 -645 c0 -2 -8
-10 -17 -17 -16 -13 -17 -12 -4 4 13 16 21 21 21 13z m-60 -56 c0 -5 -5 -10
-11 -10 -5 0 -7 5 -4 10 3 6 8 10 11 10 2 0 4 -4 4 -10z m-170 -143 c0 -8 -8
-21 -17 -30 -17 -14 -18 -13 -19 14 -1 22 3 29 17 29 11 0 19 -6 19 -13z"/>
<path d="M1229 8898 c-36 -68 -52 -438 -25 -569 8 -36 28 -95 44 -131 l30 -66
-24 -23 c-33 -31 -52 -102 -60 -222 -11 -170 22 -318 97 -434 l41 -62 -21 -28
c-47 -63 -52 -261 -10 -385 56 -168 163 -309 302 -399 50 -32 120 -68 155 -80
35 -12 110 -43 166 -68 240 -112 466 -178 741 -217 94 -13 202 -29 242 -35 39
-6 79 -9 87 -6 22 9 20 56 -9 222 -14 77 -28 160 -31 185 l-6 45 77 39 c111
56 163 102 269 234 105 132 174 200 261 258 114 75 170 94 284 94 182 0 335
-79 395 -203 49 -100 57 -264 19 -390 -34 -116 -120 -245 -269 -408 -136 -148
-204 -204 -414 -347 -253 -172 -441 -268 -666 -342 -125 -41 -166 -61 -158
-79 4 -9 9 -32 12 -52 4 -37 4 -37 -50 -54 -29 -9 -100 -39 -158 -65 -58 -26
-150 -62 -205 -80 -139 -46 -408 -155 -480 -195 -52 -29 -174 -140 -219 -200
-13 -16 -17 -17 -25 -6 -16 25 -23 264 -11 436 26 406 72 648 171 907 27 70
49 131 49 136 0 4 -30 13 -67 19 -52 8 -71 7 -81 -2 -23 -21 -80 -188 -121
-356 -97 -398 -127 -828 -88 -1264 26 -286 90 -589 177 -840 56 -163 230 -513
327 -660 76 -115 282 -372 372 -464 l43 -43 77 5 c94 6 345 75 576 158 94 34
312 110 485 169 173 60 430 150 570 200 140 50 300 107 355 126 174 62 248
107 361 219 79 77 108 115 132 166 47 98 62 170 62 290 0 73 5 115 15 136 12
25 14 70 8 285 l-6 256 -67 -48 c-37 -27 -81 -55 -98 -64 -17 -9 -33 -19 -36
-24 -5 -8 109 1 155 13 25 6 27 4 32 -37 9 -64 8 -211 0 -224 -18 -24 -143
-104 -208 -132 -79 -34 -278 -108 -343 -128 -37 -12 -47 -11 -80 4 -20 9 -40
21 -44 26 -9 13 -146 7 -169 -7 -14 -9 -16 -15 -6 -31 6 -12 11 -25 12 -29 0
-5 11 -15 25 -22 l25 -14 -26 -1 c-34 0 -97 46 -132 97 -54 79 -43 203 27 294
54 71 131 106 519 235 245 82 363 148 393 220 20 48 17 161 -6 236 -22 72 -97
185 -156 237 -103 91 -267 135 -422 112 -98 -14 -140 -28 -512 -171 -146 -56
-339 -128 -430 -160 -91 -32 -200 -72 -243 -89 -43 -17 -131 -49 -195 -70 -65
-21 -202 -70 -307 -109 -104 -39 -266 -96 -360 -128 l-170 -59 -135 1 c-118 0
-141 3 -185 22 -60 28 -85 49 -85 74 0 47 63 128 132 171 48 30 236 103 438
170 190 64 372 133 616 236 82 34 161 58 246 76 166 33 285 73 890 295 145 53
227 71 328 73 102 1 180 -20 231 -62 44 -37 64 -77 83 -167 13 -60 20 -74 60
-112 53 -50 76 -51 90 -3 15 51 -9 214 -40 278 -34 70 -127 155 -201 183 -182
68 -343 51 -669 -71 -136 -50 -371 -129 -387 -129 -5 0 -43 -14 -85 -31 -134
-54 -233 -88 -227 -79 3 5 60 41 128 81 157 93 332 210 427 286 163 130 354
337 464 503 47 71 72 95 127 129 198 117 579 314 740 380 42 18 85 38 95 46
19 15 19 15 -1 31 -64 52 -293 120 -550 164 -93 16 -213 38 -265 49 -52 12
-110 21 -127 21 -20 0 -72 21 -130 51 -170 89 -242 112 -363 113 -127 1 -203
-20 -328 -91 -111 -63 -188 -135 -326 -307 -169 -210 -260 -285 -285 -237 -5
9 -30 72 -55 141 -77 214 -194 444 -309 610 -27 40 -132 161 -373 435 -39 44
-194 207 -345 363 -151 156 -327 341 -391 412 -106 116 -174 180 -191 180 -4
0 -12 -10 -18 -22z m461 -654 c431 -454 654 -708 763 -868 72 -107 267 -513
267 -558 0 -10 -41 -11 -65 -2 -9 4 -52 55 -96 113 -119 159 -120 160 -184
234 -68 78 -109 130 -159 203 -20 28 -90 105 -157 170 -66 66 -169 168 -227
229 -59 60 -142 145 -186 190 -75 77 -175 216 -230 320 -29 55 -25 24 5 -39
10 -22 17 -41 15 -43 -7 -7 -64 124 -74 172 -6 28 -13 95 -17 150 l-6 100 48
-51 c26 -28 163 -172 303 -320z m-100 -296 c0 -6 -6 -5 -15 2 -8 7 -15 14 -15
16 0 2 7 1 15 -2 8 -4 15 -11 15 -16z m-213 -5 c14 -39 81 -112 418 -453 348
-353 467 -490 560 -643 25 -41 45 -78 45 -82 0 -12 -73 50 -141 121 -144 150
-162 168 -138 139 13 -16 39 -47 58 -67 21 -23 31 -42 27 -53 -8 -21 -30 -9
-100 53 -29 26 -68 60 -87 76 -19 15 -68 60 -110 100 -98 92 -142 131 -153
136 -11 6 -252 252 -294 300 -16 19 -40 55 -53 80 -22 42 -24 43 -29 20 -5
-20 -8 -15 -13 25 -28 192 -29 265 -6 265 5 0 12 -8 16 -17z m258 -33 c3 -6
-1 -7 -9 -4 -18 7 -21 14 -7 14 6 0 13 -4 16 -10z m101 -112 c29 -31 29 -31 2
-12 -15 10 -29 25 -32 32 -8 18 -2 15 30 -20z m76 -70 c17 -18 27 -27 23 -20
-14 28 13 6 68 -53 90 -97 79 -116 -15 -26 -77 74 -127 131 -112 131 3 0 20
-15 36 -32z m226 -239 c-3 -8 -7 -3 -11 10 -4 17 -3 21 5 13 5 -5 8 -16 6 -23z
m-575 -273 c9 -13 56 -54 104 -92 204 -157 553 -475 553 -504 0 -15 -85 30
-172 93 -42 30 -80 52 -84 49 -4 -4 -4 -2 -1 4 4 7 1 14 -6 17 -7 3 -65 46
-128 97 -79 64 -96 74 -54 35 41 -39 51 -51 30 -40 -45 24 -87 56 -145 111
-68 64 -77 69 -89 46 -6 -11 -7 -23 -3 -27 4 -5 2 -5 -5 -2 -16 10 -33 97 -33
172 0 69 8 79 33 41z m3190 -181 c196 -32 288 -53 247 -54 -19 -1 -194 -91
-265 -136 -30 -20 -69 -38 -87 -42 -18 -3 -51 -21 -74 -39 l-41 -33 -6 102
c-3 59 -14 129 -26 167 -28 87 -27 91 7 80 15 -5 125 -25 245 -45z m-1996
-562 c-2 -16 -4 -3 -4 27 0 30 2 43 4 28 2 -16 2 -40 0 -55z m-82 -62 c8 -31
2 -35 -37 -27 -47 9 -60 20 -60 50 0 35 4 39 37 26 24 -9 27 -8 21 7 -4 11 1
8 13 -7 11 -14 23 -36 26 -49z m2049 -1161 c131 -41 217 -143 236 -282 10 -72
6 -98 -16 -98 -8 0 -40 -13 -72 -29 -31 -16 -167 -66 -302 -111 -293 -99 -382
-142 -466 -225 -87 -87 -128 -186 -128 -305 1 -131 6 -183 17 -168 6 9 7 7 2
-7 -20 -61 -17 -104 9 -149 34 -59 97 -111 163 -136 45 -17 78 -20 204 -20
122 0 153 3 166 15 18 19 26 15 17 -9 -6 -17 -62 -52 -76 -48 -12 3 -9 -16 3
-24 6 -3 9 -19 7 -35 -3 -18 -1 -26 6 -21 6 3 21 5 34 3 17 -2 25 5 35 27 9
23 16 28 28 22 8 -5 21 -5 29 0 12 8 9 10 -11 10 -29 0 -49 17 -49 40 1 21 57
81 100 107 19 12 45 36 58 52 12 17 32 31 43 31 11 0 18 -4 14 -10 -17 -28 77
-143 100 -122 5 4 0 -8 -11 -26 -23 -40 -136 -128 -219 -169 -54 -28 -142 -60
-455 -168 -242 -84 -538 -188 -670 -235 -318 -115 -699 -238 -750 -243 -30 -3
-47 -4 -37 -1 11 4 17 16 17 35 0 19 5 29 15 29 24 0 60 20 73 41 12 19 11 19
-25 -1 -55 -30 -90 -26 -111 10 -9 16 -19 30 -22 30 -3 0 -23 -11 -45 -23 -26
-14 -41 -31 -43 -46 -2 -13 -12 -26 -23 -28 -29 -8 -25 -43 6 -43 14 0 25 -4
25 -9 0 -9 -22 -8 -108 5 -22 3 -48 22 -87 62 -30 31 -55 60 -55 64 0 17 34
38 62 38 36 0 128 31 128 43 0 13 -107 117 -120 117 -5 0 -9 3 -8 8 4 13 -13
52 -23 52 -5 0 -9 7 -9 16 0 8 -4 12 -10 9 -5 -3 -10 3 -10 15 0 11 -4 28 -10
38 -5 9 -18 46 -29 82 -11 36 -31 97 -45 135 -36 101 -123 571 -112 602 6 16
-60 93 -80 93 -7 0 -21 11 -30 25 -22 33 -5 55 45 56 20 0 54 4 76 8 31 5 9 9
-90 13 -102 4 -145 11 -201 30 -47 17 -77 22 -87 16 -13 -7 -16 -2 -15 30 l0
39 72 -19 c92 -26 287 -35 397 -19 50 8 161 40 283 83 111 38 271 93 356 123
85 29 214 76 286 103 73 28 175 64 227 80 53 17 142 48 199 71 295 115 815
306 888 327 69 19 160 17 234 -6z m221 -1303 c-8 -57 -44 -181 -51 -175 -2 3
5 40 16 83 11 43 20 101 20 129 1 41 3 47 11 33 7 -11 8 -39 4 -70z m-2898
-399 c7 -16 11 -28 8 -28 -7 0 -41 71 -49 100 -7 25 15 -12 41 -72z m138 -248
c14 -27 23 -50 20 -50 -2 0 -16 23 -30 50 -14 28 -23 50 -20 50 2 0 16 -22 30
-50z m110 -178 c-3 -3 -11 0 -18 7 -9 10 -8 11 6 5 10 -3 15 -9 12 -12z"/>
<path d="M1370 8455 c1 -12 50 -69 55 -64 1 2 -10 20 -26 39 -16 19 -29 30
-29 25z"/>
<path d="M1455 8360 c10 -11 20 -20 23 -20 3 0 -3 9 -13 20 -10 11 -20 20 -23
20 -3 0 3 -9 13 -20z"/>
<path d="M1600 8226 c0 -2 8 -10 18 -17 15 -13 16 -12 3 4 -13 16 -21 21 -21
13z"/>
<path d="M1770 8047 c0 -2 15 -16 33 -33 l32 -29 -29 33 c-28 30 -36 37 -36
29z"/>
<path d="M2120 7656 c0 -2 8 -10 18 -17 15 -13 16 -12 3 4 -13 16 -21 21 -21
13z"/>
<path d="M2190 7575 c19 -19 36 -35 39 -35 3 0 -10 16 -29 35 -19 19 -36 35
-39 35 -3 0 10 -16 29 -35z"/>
<path d="M2230 7527 c0 -2 14 -16 32 -33 l31 -29 -23 33 c-20 27 -40 42 -40
29z"/>
<path d="M2290 7456 c0 -2 8 -10 18 -17 15 -13 16 -12 3 4 -13 16 -21 21 -21
13z"/>
<path d="M2320 7416 c0 -2 8 -10 18 -17 15 -13 16 -12 3 4 -13 16 -21 21 -21
13z"/>
<path d="M1750 7416 c0 -2 8 -10 18 -17 15 -13 16 -12 3 4 -13 16 -21 21 -21
13z"/>
<path d="M1880 7285 c30 -30 57 -55 59 -55 3 0 -19 25 -49 55 -30 30 -57 55
-59 55 -3 0 19 -25 49 -55z"/>
<path d="M1990 7166 c0 -2 8 -10 18 -17 15 -13 16 -12 3 4 -13 16 -21 21 -21
13z"/>
<path d="M2040 7116 c0 -2 8 -10 18 -17 15 -13 16 -12 3 4 -13 16 -21 21 -21
13z"/>
<path d="M1580 6996 c0 -2 8 -10 18 -17 15 -13 16 -12 3 4 -13 16 -21 21 -21
13z"/>
<path d="M4808 6963 c6 -2 18 -2 25 0 6 3 1 5 -13 5 -14 0 -19 -2 -12 -5z"/>
<path d="M4565 5180 c-3 -5 1 -10 9 -10 24 0 116 -62 118 -79 1 -9 2 -23 3
-31 3 -20 41 -101 57 -121 7 -9 23 -19 35 -23 21 -7 22 -5 17 26 -21 106 -88
180 -226 245 -4 2 -9 -1 -13 -7z"/>
<path d="M4250 4986 c0 -8 4 -17 9 -20 5 -4 7 3 4 14 -6 23 -13 26 -13 6z"/>
<path d="M4131 4936 c7 -15 15 -23 17 -16 3 7 -3 19 -13 28 -15 16 -16 15 -4
-12z"/>
<path d="M3758 4943 c7 -3 16 -2 19 1 4 3 -2 6 -13 5 -11 0 -14 -3 -6 -6z"/>
<path d="M3760 4890 c0 -5 7 -10 16 -10 8 0 12 5 9 10 -3 6 -10 10 -16 10 -5
0 -9 -4 -9 -10z"/>
<path d="M3671 4784 c0 -11 3 -14 6 -6 3 7 2 16 -1 19 -3 4 -6 -2 -5 -13z"/>
<path d="M3680 4751 c0 -6 4 -13 10 -16 6 -3 7 1 4 9 -7 18 -14 21 -14 7z"/>
<path d="M3243 4684 c15 -8 27 -23 27 -34 0 -11 5 -20 10 -20 17 0 11 29 -10
50 -11 11 -28 20 -37 20 -13 -1 -10 -5 10 -16z"/>
<path d="M3393 4666 c1 -16 9 -32 17 -34 12 -4 13 -2 4 9 -7 8 -14 23 -17 34
-4 13 -5 9 -4 -9z"/>
<path d="M3048 4589 c6 -7 12 -31 12 -53 0 -40 0 -40 16 -18 16 24 16 67 -1
67 -5 0 -17 4 -25 9 -12 7 -13 6 -2 -5z"/>
<path d="M2540 4505 c-32 -18 -25 -18 25 0 22 8 31 14 20 14 -11 0 -31 -6 -45
-14z"/>
<path d="M2420 4470 c-18 -12 -2 -12 25 0 13 6 15 9 5 9 -8 0 -22 -4 -30 -9z"/>
<path d="M3965 3445 c-27 -13 -59 -25 -70 -25 -12 -1 -6 -6 15 -11 41 -10 72
2 95 38 9 12 14 23 13 23 -2 -1 -25 -12 -53 -25z"/>
<path d="M3515 3316 c10 -14 19 -26 22 -26 7 0 -17 39 -28 46 -6 3 -3 -5 6
-20z"/>
<path d="M8922 8668 c-127 -134 -321 -336 -431 -450 -333 -346 -540 -592 -648
-774 -27 -44 -84 -157 -128 -251 -89 -193 -81 -188 -152 -98 -65 81 -176 180
-250 221 -201 113 -339 133 -515 74 -53 -17 -136 -54 -185 -82 -76 -42 -99
-51 -170 -59 -45 -5 -119 -18 -165 -29 -46 -10 -137 -29 -203 -40 -174 -31
-402 -85 -477 -114 -163 -61 -167 -77 -30 -136 53 -24 137 -65 186 -92 49 -27
191 -98 315 -158 343 -164 336 -159 401 -267 30 -50 75 -116 98 -148 24 -31
42 -58 40 -60 -7 -6 -203 -76 -433 -155 -475 -162 -610 -246 -701 -437 -66
-136 -66 -145 -61 -848 5 -603 6 -633 26 -696 67 -213 226 -307 471 -281 81 9
86 9 103 -12 133 -158 246 -216 418 -216 99 0 232 34 527 135 123 42 230 74
238 71 28 -11 -13 -58 -266 -315 -285 -289 -454 -423 -754 -600 -355 -209
-936 -396 -1389 -448 -187 -21 -684 -24 -851 -5 -215 26 -462 83 -844 198
-117 35 -226 64 -243 64 -37 0 -89 -26 -89 -44 0 -31 54 -105 177 -244 271
-307 466 -456 776 -594 223 -100 274 -120 448 -179 230 -77 346 -102 614 -134
392 -47 508 -49 795 -14 185 22 650 132 840 197 323 112 467 179 658 306 79
53 166 108 195 122 83 43 339 217 435 298 169 142 435 418 619 641 68 83 252
364 298 455 215 428 339 850 376 1280 13 149 6 760 -11 930 -14 134 -58 317
-97 398 -38 78 -113 150 -197 190 -99 47 -159 56 -280 42 -110 -12 -234 -51
-661 -205 -460 -165 -617 -215 -692 -215 -30 0 -38 8 -112 118 -44 64 -114
164 -156 222 -220 304 -269 417 -269 620 0 85 4 116 22 161 45 113 191 213
351 239 123 20 214 2 338 -70 102 -59 146 -101 253 -245 104 -140 219 -256
335 -338 149 -106 359 -183 530 -194 88 -5 95 -4 215 36 214 73 349 154 451
273 68 79 105 148 144 268 24 71 28 103 28 195 1 92 -3 118 -20 158 -12 26
-27 47 -34 47 -8 0 -7 6 3 18 56 62 114 232 127 372 14 152 -12 293 -66 352
-14 16 -13 26 15 111 55 166 64 356 26 561 -17 90 -31 116 -60 116 -14 0 -95
-78 -252 -242z m168 -140 c0 -127 -31 -257 -87 -368 -26 -52 -52 -94 -58 -94
-14 2 -47 -25 -156 -129 -53 -51 -116 -108 -140 -127 -24 -19 -91 -77 -149
-129 -58 -52 -118 -102 -134 -112 -44 -27 -134 -118 -142 -142 -3 -12 -13 -30
-21 -39 -8 -9 -12 -21 -9 -26 5 -8 -182 -198 -188 -191 -2 2 -11 27 -21 54
-10 28 -23 55 -28 62 -21 28 39 138 146 268 69 83 306 341 533 580 214 225
292 309 378 408 32 37 62 67 67 67 5 0 9 -37 9 -82z m-216 -550 c-111 -115
-164 -168 -172 -168 -3 0 18 26 48 58 146 153 184 191 188 187 3 -2 -26 -37
-64 -77z m221 -87 c7 -61 -10 -171 -27 -171 -4 0 -8 -4 -8 -10 0 -5 -11 -26
-25 -46 -24 -35 -34 -71 -17 -60 12 7 8 -25 -7 -52 -7 -13 -10 -26 -8 -29 3
-2 8 5 12 16 3 12 11 21 16 21 12 0 -10 -42 -50 -98 -18 -23 -36 -40 -41 -37
-5 3 -12 0 -16 -6 -4 -8 -3 -9 4 -5 7 4 12 3 12 -2 0 -15 -229 -227 -241 -224
-6 1 -8 -2 -5 -7 8 -12 -11 -24 -41 -28 -17 -3 -20 1 -16 17 5 18 1 20 -30 18
-26 -2 -33 -7 -29 -18 4 -12 1 -11 -15 3 -26 23 -46 22 -58 -4 -6 -12 -25 -27
-43 -33 -17 -6 -65 -43 -105 -82 -100 -98 -130 -113 -155 -73 -12 19 -10 27
25 78 21 30 196 216 388 411 193 195 370 382 395 415 70 93 75 93 85 6z m-78
-678 c11 -47 -13 -193 -46 -272 -49 -120 -110 -181 -253 -254 -88 -44 -266
-102 -340 -111 l-53 -6 40 15 c22 8 50 15 63 15 13 0 20 4 17 10 -3 5 2 9 12
8 36 -3 74 2 70 10 -3 4 7 8 21 9 15 0 28 6 30 12 2 6 7 9 12 6 15 -9 81 26
115 62 36 39 46 73 20 73 -8 0 -25 10 -37 22 l-21 21 -17 -21 c-10 -12 -21
-18 -25 -14 -3 4 -13 -2 -21 -12 -8 -11 -14 -17 -14 -13 0 4 -13 1 -29 -8 -16
-8 -45 -17 -65 -19 l-36 -5 19 27 c30 43 176 180 291 272 58 47 130 111 160
142 30 31 61 57 67 57 7 1 16 -11 20 -26z m-861 -28 c-27 -35 -36 -42 -36 -27
0 11 54 72 59 67 2 -3 -8 -20 -23 -40z m464 -69 c0 -3 -4 -8 -10 -11 -5 -3
-10 -1 -10 4 0 6 5 11 10 11 6 0 10 -2 10 -4z m-2230 -60 c-22 -27 -50 -170
-50 -254 l0 -84 -32 24 c-37 27 -224 127 -278 148 -125 47 -200 84 -192 92 6
6 39 5 87 -1 79 -11 115 -9 51 3 -59 11 -50 24 21 31 38 4 140 20 228 35 88
14 164 25 168 22 4 -2 3 -9 -3 -16z m1745 -385 c-3 -6 -11 -11 -16 -11 -5 0
-4 6 3 14 14 16 24 13 13 -3z m-80 -3 c25 -11 34 -28 15 -28 -5 0 -10 4 -10 8
0 5 -10 14 -22 20 -31 14 -16 15 17 0z m563 -548 c75 -38 114 -82 161 -179 34
-74 35 -79 42 -236 9 -192 9 -698 0 -1030 l-6 -240 -135 -12 c-153 -13 -249
-38 -520 -133 -96 -34 -265 -93 -375 -130 -216 -74 -453 -158 -826 -293 -129
-47 -278 -98 -330 -113 -161 -46 -314 -33 -415 37 -80 55 -153 167 -154 236
l0 31 59 -5 c63 -6 121 4 241 42 41 14 150 44 241 69 190 51 252 77 329 135
66 50 143 160 167 239 22 72 22 182 0 247 -40 117 -136 213 -253 255 -93 33
-183 25 -334 -28 -63 -22 -146 -54 -185 -72 -86 -39 -209 -80 -241 -80 -40 0
-48 34 -36 139 22 182 128 333 322 454 34 22 526 200 760 276 52 17 192 65
310 107 493 175 789 277 855 294 44 12 106 19 166 19 87 1 101 -2 157 -29z
m-1878 -91 c12 -22 41 -70 66 -106 26 -39 44 -75 42 -87 -4 -26 -49 -49 -238
-121 -325 -124 -422 -176 -530 -285 -49 -49 -76 -88 -111 -160 -26 -52 -50
-111 -53 -130 -13 -62 -16 -67 -50 -85 -19 -10 -40 -30 -46 -44 -17 -37 -24
-117 -12 -125 6 -4 8 -14 5 -23 -4 -11 -3 -14 5 -9 7 4 15 1 18 -7 7 -19 91
-75 174 -117 85 -43 128 -39 285 27 401 169 401 169 488 139 151 -54 211 -202
143 -351 -50 -111 -102 -148 -263 -191 -54 -14 -161 -46 -238 -72 -122 -41
-151 -47 -225 -47 -96 0 -185 25 -264 75 -44 28 -46 31 -41 67 12 91 24 267
18 276 -4 6 0 8 10 4 30 -11 18 1 -28 27 -27 16 -47 36 -51 51 -3 14 -10 23
-14 20 -5 -3 -10 1 -13 7 -2 7 -10 -12 -18 -42 -10 -39 -14 -118 -14 -272 l0
-217 28 -29 c16 -16 44 -38 63 -48 33 -18 35 -21 30 -59 -3 -22 -8 -66 -12
-97 l-6 -58 -57 0 c-100 1 -181 53 -228 148 l-28 57 0 660 0 660 32 66 c38 76
136 182 207 224 36 20 879 315 902 315 2 0 13 -18 24 -41z m1968 -1785 c30 -8
29 -25 -14 -173 -76 -267 -220 -582 -352 -771 -126 -181 -206 -268 -250 -274
-9 -2 -21 -11 -26 -22 -6 -10 -16 -22 -23 -27 -7 -4 -19 -14 -28 -23 -13 -14
-15 -13 -15 13 0 47 -55 302 -90 413 -17 58 -51 141 -74 185 -52 98 -181 281
-218 308 -16 12 -28 24 -28 29 0 10 59 40 157 79 126 50 688 239 756 254 66
14 167 19 205 9z m-1215 -411 c8 -10 26 -40 40 -66 l24 -48 -75 -147 c-96
-190 -180 -337 -250 -437 -31 -44 -85 -123 -120 -175 -72 -106 -78 -114 -246
-325 -158 -199 -245 -296 -258 -288 -6 3 -8 1 -4 -5 8 -14 -40 -66 -53 -57 -6
3 -9 0 -6 -7 6 -15 -238 -262 -248 -252 -9 10 15 54 26 47 6 -3 7 -1 3 6 -9
15 12 43 26 34 6 -3 9 0 6 8 -3 10 -24 14 -71 14 -55 1 -71 -3 -86 -20 -10
-11 -27 -27 -37 -35 -11 -8 -35 -28 -54 -44 l-35 -29 30 6 30 6 -28 -13 c-15
-6 -24 -15 -21 -19 4 -4 2 -7 -4 -7 -7 0 -12 5 -12 10 0 6 -4 10 -10 10 -19 0
-10 -21 13 -30 16 -6 17 -9 5 -9 -9 -1 -20 4 -23 10 -10 15 -19 10 -131 -69
-88 -62 -162 -105 -354 -209 -80 -43 -226 -100 -301 -118 -68 -16 -151 -19
-184 -6 -18 7 -18 8 5 24 14 8 70 32 125 52 269 99 758 396 807 490 8 16 8 18
-2 8 -7 -6 -18 -9 -25 -7 -6 3 -48 -9 -91 -26 -76 -30 -100 -42 -284 -145 -97
-55 -313 -155 -332 -155 -15 0 32 26 59 33 12 3 8 5 -9 6 -16 0 -28 -3 -28 -9
0 -5 -8 -10 -18 -10 -10 0 -24 -6 -31 -12 -10 -11 -11 -10 -6 5 4 9 11 17 16
17 5 0 9 5 9 10 0 6 -22 10 -50 10 -27 0 -50 -4 -50 -10 0 -13 -139 -13 -177
0 -26 10 -48 4 -164 -38 -174 -65 -255 -86 -420 -113 -146 -24 -202 -21 -219
11 -15 27 9 46 67 53 144 17 591 161 633 204 13 14 6 15 -70 9 -47 -3 -146
-17 -220 -30 -174 -31 -249 -42 -388 -57 -117 -13 -147 -8 -147 22 0 20 -146
93 -155 78 -6 -8 -13 -8 -28 0 -11 6 -41 11 -66 11 -41 0 -46 2 -46 23 0 20
-5 23 -47 25 -26 1 -50 7 -54 13 -5 8 -9 5 -12 -7 -4 -16 -5 -16 -6 4 0 12 -5
22 -11 22 -5 0 -10 15 -10 34 0 36 -31 66 -67 66 -9 0 -27 10 -38 22 -21 24
-94 68 -108 65 -4 -1 -22 10 -41 25 -19 15 -45 30 -59 33 -23 6 -25 4 -22 -26
1 -19 11 -40 24 -50 12 -10 17 -20 12 -23 -9 -6 -166 152 -158 160 8 9 52 -14
79 -40 16 -16 29 -23 33 -16 8 12 -3 32 -15 25 -4 -3 -13 2 -20 10 -9 11 3 10
57 -6 373 -108 673 -144 1143 -136 312 5 428 18 721 80 199 43 555 157 752
242 219 93 501 268 728 448 285 227 670 635 755 800 16 30 41 56 55 57 3 0 13
-8 22 -17z m-138 -877 c-27 -170 -560 -821 -907 -1108 -113 -94 -148 -115
-208 -124 -39 -6 -42 -6 -32 12 6 11 83 88 172 173 151 144 302 307 416 447
27 33 88 108 136 166 47 58 112 141 144 184 162 220 237 304 266 296 17 -4 18
-10 13 -46z m146 -103 c-12 -20 -14 -14 -5 12 4 9 9 14 11 11 3 -2 0 -13 -6
-23z m140 -193 c-6 -30 -9 -67 -6 -82 3 -15 1 -30 -5 -33 -5 -3 -10 -15 -10
-25 0 -27 -181 -172 -196 -157 -6 6 24 64 101 197 30 52 70 124 87 159 33 63
33 63 36 30 2 -19 -1 -59 -7 -89z m-416 -320 c-3 -5 -12 -10 -18 -10 -7 0 -6
4 3 10 19 12 23 12 15 0z m-106 -124 c-22 -20 -22 -20 -6 0 9 11 17 27 18 35
0 11 2 11 6 0 3 -7 -5 -23 -18 -35z m-859 -231 c-7 -9 -15 -13 -19 -10 -3 3 1
10 9 15 21 14 24 12 10 -5z m-74 -61 c-30 -26 -42 -31 -49 -22 -6 9 -7 8 -3
-4 7 -23 -51 -68 -89 -68 -34 0 -29 9 8 12 14 1 23 6 21 10 -3 5 -3 22 1 38 6
26 11 30 38 30 50 0 79 11 73 26 -4 9 2 14 17 14 20 -1 18 -5 -17 -36z m574
21 c0 -2 -18 -14 -40 -25 -40 -21 -41 -21 -28 -1 12 19 27 27 56 30 6 0 12 -1
12 -4z m-710 -132 c-8 -4 -22 -16 -31 -27 -17 -20 -18 -20 -14 -1 2 11 4 23 4
28 1 4 13 7 29 6 15 0 21 -3 12 -6z"/>
<path d="M9015 8409 c-22 -23 -33 -38 -24 -33 16 9 75 74 67 74 -2 0 -22 -19
-43 -41z"/>
<path d="M8950 8345 c-7 -9 -11 -17 -9 -20 3 -2 10 5 17 15 14 24 10 26 -8 5z"/>
<path d="M8850 8245 c-85 -86 -92 -109 -9 -32 49 46 99 107 87 107 -2 0 -37
-34 -78 -75z"/>
<path d="M9011 7743 c-27 -32 -36 -50 -29 -55 15 -8 30 0 23 13 -4 5 -1 9 4 9
19 0 61 43 61 62 0 29 -16 21 -59 -29z"/>
<path d="M8986 7553 c-6 -14 -5 -15 5 -6 7 7 10 15 7 18 -3 3 -9 -2 -12 -12z"/>
<path d="M8936 7496 c-43 -37 -38 -50 12 -30 24 11 32 20 32 39 0 14 -1 25 -3
25 -2 0 -20 -15 -41 -34z"/>
<path d="M8862 7420 c0 -14 2 -19 5 -12 2 6 2 18 0 25 -3 6 -5 1 -5 -13z"/>
<path d="M8918 7039 c-32 -28 -58 -56 -58 -62 0 -9 2 -9 8 -1 4 7 23 20 42 31
19 11 40 29 46 41 6 12 14 19 17 15 4 -3 7 1 7 10 0 10 -1 17 -2 17 -2 0 -29
-23 -60 -51z"/>
<path d="M8715 6875 c-16 -13 -26 -27 -22 -32 4 -4 20 5 34 20 35 34 27 42
-12 12z"/>
<path d="M6150 6942 c43 -15 100 -21 100 -11 0 5 -13 9 -29 9 -16 0 -44 2 -62
5 -28 4 -30 4 -9 -3z"/>
<path d="M7673 5776 c-15 -13 -26 -26 -23 -28 3 -2 18 9 34 24 35 34 27 37
-11 4z"/>
<path d="M7347 5640 c-10 -16 -16 -30 -14 -30 2 0 13 14 25 30 13 17 19 30 14
30 -4 0 -16 -13 -25 -30z"/>
<path d="M6340 5335 c-19 -14 -30 -25 -24 -25 10 1 73 50 63 50 -3 0 -20 -11
-39 -25z"/>
<path d="M7036 4303 c-6 -14 -5 -15 5 -6 7 7 10 15 7 18 -3 3 -9 -2 -12 -12z"/>
<path d="M6671 4099 c-18 -6 -31 -12 -28 -15 3 -3 27 1 53 10 53 16 30 20 -25
5z"/>
<path d="M5936 5252 c-10 -17 -26 -62 -21 -62 7 0 37 62 32 67 -3 2 -8 0 -11
-5z"/>
<path d="M5820 4828 c0 -9 5 -20 10 -23 13 -8 13 5 0 25 -8 13 -10 13 -10 -2z"/>
<path d="M6758 4805 c18 -8 35 -21 38 -30 3 -8 11 -12 17 -8 5 3 8 2 6 -3 -3
-5 -11 -21 -18 -36 -13 -26 -15 -26 -42 -13 -15 8 -41 15 -56 14 -28 -1 -28
-1 4 -9 18 -4 44 -15 57 -24 27 -17 50 -82 40 -112 -3 -11 1 -9 10 6 l16 25
-6 -26 c-3 -17 0 -30 10 -38 9 -7 13 -18 10 -25 -4 -6 4 -1 16 11 25 23 39
107 26 157 -13 52 -102 127 -150 126 -6 -1 4 -7 22 -15z m106 -110 c3 -8 1
-15 -4 -15 -6 0 -10 7 -10 15 0 8 2 15 4 15 2 0 6 -7 10 -15z m15 -63 c-1 -15
-5 -40 -9 -57 l-8 -30 -2 33 c-4 47 -4 50 -12 58 -13 12 -9 20 12 21 16 1 20
-4 19 -25z m-32 -74 c-3 -8 -6 -5 -6 6 -1 11 2 17 5 13 3 -3 4 -12 1 -19z"/>
<path d="M6752 4510 c-19 -18 -43 -30 -59 -30 -14 0 -24 -3 -20 -6 12 -13 78
8 102 32 45 45 26 48 -23 4z"/>
<path d="M3681 2094 c0 -11 3 -14 6 -6 3 7 2 16 -1 19 -3 4 -6 -2 -5 -13z"/>
<path d="M2970 7802 c-8 -15 -13 -30 -12 -34 1 -5 -2 -8 -8 -8 -16 0 -63 -90
-67 -132 -4 -28 -2 -38 6 -34 6 4 11 22 12 39 l1 32 9 -32 c11 -37 34 -43 44
-12 5 15 10 18 15 9 5 -8 9 -5 13 9 3 13 13 21 26 21 12 0 21 6 21 13 0 8 4 7
10 -3 8 -13 10 -13 10 2 0 9 6 18 13 21 6 2 8 8 4 13 -4 5 -12 2 -17 -6 -14
-23 -25 -3 -13 23 13 28 3 50 -19 42 -11 -4 -18 0 -21 12 -4 17 -5 17 -6 0 0
-10 -6 -15 -12 -12 -7 5 -5 15 5 30 9 13 12 26 7 29 -4 3 -14 -7 -21 -22z"/>
<path d="M3728 7000 c-57 -38 -78 -80 -78 -157 0 -129 115 -220 225 -179 91
35 145 131 125 221 -14 62 -34 91 -85 120 -61 36 -128 34 -187 -5z"/>
<path d="M6912 7022 c-39 -12 -93 -63 -113 -106 -41 -91 -13 -195 67 -246 75
-47 144 -37 213 31 43 43 61 86 61 146 0 94 -69 173 -157 179 -26 2 -58 0 -71
-4z"/>
<path d="M4790 4560 c-9 -6 -10 -10 -3 -10 6 0 15 5 18 10 8 12 4 12 -15 0z"/>
<path d="M5165 3151 c-71 -44 -93 -109 -55 -169 69 -110 225 -51 207 79 -6 47
-29 76 -74 95 -41 18 -42 18 -78 -5z"/>
</g>
</svg>
